<?xml version="1.0" encoding="utf-8"?>
<!-- Generator: Adobe Illustrator 23.0.1, SVG Export Plug-In . SVG Version: 6.00 Build 0)  -->
<svg version="1.1" id="Layer_1" xmlns="http://www.w3.org/2000/svg" xmlns:xlink="http://www.w3.org/1999/xlink" x="0px" y="0px"
	 viewBox="0 0 77 21" style="enable-background:new 0 0 77 21;" xml:space="preserve">
<style type="text/css">
	.st0{fill-rule:evenodd;clip-rule:evenodd;fill:#FFFFFF;}
	.st1{fill:#FFFFFF;enable-background:new    ;}
	.st2{fill:#4D7D75;}
</style>
<title>Group 2</title>
<desc>Created with Sketch.</desc>
<g id="Search">
	<g id="Search-Results-V1b-Hover" transform="translate(-137.000000, -268.000000)">
		<g id="Group-2" transform="translate(137.000000, 268.000000)">
			<g id="Group-Copy" transform="translate(0.000000, 3.000000)">
				<path id="BASIC-Copy-2" class="st0" d="M0,0.4h6.7c0.6,0,1.3,0.1,1.9,0.2s1.2,0.4,1.7,0.8c0.5,0.3,0.9,0.8,1.2,1.3S12,4,12,4.7
					c0,1-0.3,1.8-0.8,2.4S9.9,8.2,9,8.5v0c0.5,0.1,1,0.2,1.5,0.4c0.5,0.2,0.9,0.5,1.2,0.9c0.3,0.4,0.6,0.8,0.8,1.3
					c0.2,0.5,0.3,1,0.3,1.5c0,0.9-0.2,1.7-0.6,2.3c-0.4,0.6-0.9,1.1-1.5,1.5s-1.3,0.6-2.1,0.8S7,17.6,6.2,17.6H0V0.4z M3.1,7.4h2.8
					c1,0,1.8-0.2,2.3-0.6c0.5-0.4,0.8-0.9,0.8-1.6c0-0.7-0.3-1.3-0.8-1.7S6.7,3,5.6,3H3.1V7.4z M3.1,15h2.8c0.4,0,0.8,0,1.2-0.1
					s0.9-0.2,1.2-0.3c0.4-0.2,0.7-0.4,0.9-0.8s0.4-0.8,0.4-1.3c0-0.9-0.3-1.5-0.9-1.9C8.1,10.2,7.2,10,6,10H3.1V15z M21.3,0.4h2.6
					l7.4,17.1h-3.5l-1.6-3.9h-7.4l-1.6,3.9h-3.4L21.3,0.4z M25.1,11l-2.6-7l-2.7,7H25.1z M41.6,4.1c-0.3-0.5-0.8-0.8-1.3-1
					c-0.5-0.2-1.1-0.3-1.7-0.3c-0.4,0-0.7,0-1,0.1C37.3,3,37,3.1,36.7,3.3C36.4,3.4,36.2,3.7,36,4c-0.2,0.3-0.2,0.6-0.2,1
					c0,0.6,0.2,1,0.6,1.3c0.4,0.3,0.9,0.6,1.5,0.8c0.6,0.2,1.3,0.4,2,0.7c0.7,0.2,1.4,0.5,2,0.9c0.6,0.4,1.1,0.9,1.5,1.5
					s0.6,1.4,0.6,2.4c0,0.9-0.2,1.7-0.5,2.4c-0.3,0.7-0.8,1.3-1.4,1.7c-0.6,0.5-1.2,0.8-2,1c-0.8,0.2-1.6,0.3-2.4,0.3
					c-1.1,0-2.1-0.2-3.1-0.5c-1-0.4-1.8-1-2.5-1.8l2.3-2.2c0.4,0.6,0.9,1,1.5,1.3c0.6,0.3,1.2,0.5,1.9,0.5c0.4,0,0.7,0,1.1-0.1
					c0.4-0.1,0.7-0.2,1-0.4s0.5-0.4,0.7-0.7c0.2-0.3,0.3-0.6,0.3-1c0-0.6-0.2-1.1-0.6-1.5c-0.4-0.3-0.9-0.6-1.5-0.9
					c-0.6-0.2-1.3-0.5-2-0.7c-0.7-0.2-1.4-0.5-2-0.9c-0.6-0.4-1.1-0.8-1.5-1.5s-0.6-1.4-0.6-2.4c0-0.9,0.2-1.7,0.5-2.3
					s0.8-1.2,1.4-1.6s1.3-0.7,2-1S38.1,0,38.9,0c0.9,0,1.8,0.1,2.6,0.4c0.8,0.3,1.6,0.7,2.3,1.4L41.6,4.1z M47.1,0.4h3.1v17.1h-3.1
					V0.4z M64.5,3.5c0,0-0.5-0.3-0.7-0.4c-0.6-0.2-1.2-0.3-1.8-0.3c-0.9,0-1.7,0.2-2.4,0.5S58.3,4,57.8,4.5
					c-0.5,0.6-0.9,1.2-1.2,1.9S56.1,8,56.1,8.9c0,0.9,0.1,1.8,0.4,2.5c0.3,0.8,0.7,1.4,1.2,2c0.5,0.6,1.1,1,1.9,1.3s1.5,0.5,2.4,0.5
					c0.7,0,1.4-0.2,2-0.5s1.9-0.8,3.1-3.2l2.8,1.2c-2,3.6-3.3,4.1-4.4,4.5C64.5,17.8,63.3,18,62,18c-1.3,0-2.5-0.2-3.6-0.6
					s-2.1-1-2.9-1.8c-0.8-0.8-1.4-1.7-1.9-2.8c-0.5-1.1-0.7-2.3-0.7-3.7c0-1.4,0.2-2.6,0.7-3.7c0.5-1.1,1.1-2.1,1.9-2.9
					c0.8-0.8,1.8-1.4,2.9-1.8S60.7,0,62,0c1.2,0,2.2,0.2,3.2,0.6c0.5,0.2,1,0.5,1.4,0.8C66.6,1.4,64.5,3.5,64.5,3.5z"/>
			</g>
		</g>
	</g>
</g>
<path class="st1" d="M65.6,14.7c0.2-0.4,0.5-0.8,0.7-1.2C69,8.7,72.3,4.4,76.6,1c0.2-0.1,0.3-0.3,0.1-0.5C76.5,0.4,76.4,0,76,0.3
	c-1.7,1.1-3.3,2.3-4.8,3.7c-2.9,2.6-5.4,5.6-7.5,8.9c-0.1,0.1-0.2,0.2-0.3,0.4c-0.1-0.2-0.1-0.3-0.2-0.4c-0.4-0.8-0.8-1.7-1.2-2.4
	c-0.4-0.7-1.1-1-1.9-0.9c-0.8,0.2-1.4,0.8-1.9,1.4c2.2,1.9,3.3,4.3,4,7c0,0,1.5-0.8,2.1-1.5C65,15.8,65.6,14.7,65.6,14.7z"/>
<line class="st2" x1="67.1" y1="22.4" x2="67.1" y2="25"/>
</svg>
